<svg  display="none" xmlns="http://www.w3.org/2000/svg">
  <symbol xmlns="http://www.w3.org/2000/svg" viewBox="0 0 384 512" id="angles-down">
    <path d="M169.4 278.6C175.6 284.9 183.8 288 192 288s16.38-3.125 22.62-9.375l160-160c12.5-12.5 12.5-32.75 0-45.25s-32.75-12.5-45.25 0L192 210.8L54.63 73.38c-12.5-12.5-32.75-12.5-45.25 0s-12.5 32.75 0 45.25L169.4 278.6zM329.4 265.4L192 402.8L54.63 265.4c-12.5-12.5-32.75-12.5-45.25 0s-12.5 32.75 0 45.25l160 160C175.6 476.9 183.8 480 192 480s16.38-3.125 22.62-9.375l160-160c12.5-12.5 12.5-32.75 0-45.25S341.9 252.9 329.4 265.4z"></path>
  </symbol>
  <symbol xmlns="http://www.w3.org/2000/svg" viewBox="0 0 448 512" id="angles-right">
    <path d="M246.6 233.4l-160-160c-12.5-12.5-32.75-12.5-45.25 0s-12.5 32.75 0 45.25L178.8 256l-137.4 137.4c-12.5 12.5-12.5 32.75 0 45.25C47.63 444.9 55.81 448 64 448s16.38-3.125 22.62-9.375l160-160C259.1 266.1 259.1 245.9 246.6 233.4zM438.6 233.4l-160-160c-12.5-12.5-32.75-12.5-45.25 0s-12.5 32.75 0 45.25L370.8 256l-137.4 137.4c-12.5 12.5-12.5 32.75 0 45.25C239.6 444.9 247.8 448 256 448s16.38-3.125 22.62-9.375l160-160C451.1 266.1 451.1 245.9 438.6 233.4z"></path>
  </symbol>
  <symbol viewBox="0 0 576 512" id="basket-shopping">
    <path d="M171.7 191.1H404.3L322.7 35.07C316.6 23.31 321.2 8.821 332.9 2.706C344.7-3.409 359.2 1.167 365.3 12.93L458.4 191.1H544C561.7 191.1 576 206.3 576 223.1C576 241.7 561.7 255.1 544 255.1L492.1 463.5C484.1 492 459.4 512 430 512H145.1C116.6 512 91 492 83.88 463.5L32 255.1C14.33 255.1 0 241.7 0 223.1C0 206.3 14.33 191.1 32 191.1H117.6L210.7 12.93C216.8 1.167 231.3-3.409 243.1 2.706C254.8 8.821 259.4 23.31 253.3 35.07L171.7 191.1zM191.1 303.1C191.1 295.1 184.8 287.1 175.1 287.1C167.2 287.1 159.1 295.1 159.1 303.1V399.1C159.1 408.8 167.2 415.1 175.1 415.1C184.8 415.1 191.1 408.8 191.1 399.1V303.1zM271.1 303.1V399.1C271.1 408.8 279.2 415.1 287.1 415.1C296.8 415.1 304 408.8 304 399.1V303.1C304 295.1 296.8 287.1 287.1 287.1C279.2 287.1 271.1 295.1 271.1 303.1zM416 303.1C416 295.1 408.8 287.1 400 287.1C391.2 287.1 384 295.1 384 303.1V399.1C384 408.8 391.2 415.1 400 415.1C408.8 415.1 416 408.8 416 399.1V303.1z"></path>
  </symbol>
  <symbol viewBox="0 0 512 512" id="circle-left">
    <path d="M0 256c0 141.4 114.6 256 256 256s256-114.6 256-256c0-141.4-114.6-256-256-256S0 114.6 0 256zM246.1 129.2C252.1 131.7 256 137.5 256 144v64h96c17.67 0 32 14.33 32 32v32c0 17.67-14.33 32-32 32h-96v64c0 6.469-3.891 12.31-9.875 14.78c-5.984 2.484-12.86 1.109-17.44-3.469l-112-112c-6.248-6.248-6.248-16.38 0-22.62l112-112C233.3 128.1 240.1 126.7 246.1 129.2z"></path>
  </symbol>
  <symbol xmlns="http://www.w3.org/2000/svg" viewBox="0 0 512 512" id="circle-right">
    <path d="M512 256c0-141.4-114.6-256-256-256S0 114.6 0 256c0 141.4 114.6 256 256 256S512 397.4 512 256zM265.9 382.8C259.9 380.3 256 374.5 256 368v-64H160c-17.67 0-32-14.33-32-32v-32c0-17.67 14.33-32 32-32h96v-64c0-6.469 3.891-12.31 9.875-14.78c5.984-2.484 12.86-1.109 17.44 3.469l112 112c6.248 6.248 6.248 16.38 0 22.62l-112 112C278.7 383.9 271.9 385.3 265.9 382.8z"></path>
  </symbol>
  <symbol viewBox="0 0 512 512" id="envelope">
    <path d="M464 64C490.5 64 512 85.49 512 112C512 127.1 504.9 141.3 492.8 150.4L275.2 313.6C263.8 322.1 248.2 322.1 236.8 313.6L19.2 150.4C7.113 141.3 0 127.1 0 112C0 85.49 21.49 64 48 64H464zM217.6 339.2C240.4 356.3 271.6 356.3 294.4 339.2L512 176V384C512 419.3 483.3 448 448 448H64C28.65 448 0 419.3 0 384V176L217.6 339.2z"></path>
  </symbol>
  <symbol  id="event-date"  viewBox="0 0 612 612">
    <g>
      <g>
        <g>
          <g>
            <g>
              <path d="M479.808,326.519c-73.02,0-132.228,59.227-132.228,132.229c0,72.983,59.208,132.174,132.228,132.174
						c72.984,0,132.192-59.19,132.192-132.174C612,385.745,552.792,326.519,479.808,326.519z M488.292,556.469v-11.415
						c0-4.722-3.808-8.538-8.484-8.538c-4.722,0-8.521,3.826-8.521,8.538v11.415c-47.341-4.07-85.158-41.896-89.229-89.229h11.451
						c4.677,0,8.502-3.809,8.502-8.484c0-4.758-3.825-8.521-8.502-8.521h-11.451c4.07-47.351,41.896-85.14,89.229-89.229v11.433
						c0,4.704,3.809,8.521,8.521,8.521c4.677,0,8.484-3.826,8.484-8.521v-11.433c47.359,4.089,85.177,41.878,89.229,89.229h-11.451
						c-4.703,0-8.502,3.771-8.502,8.521c0,4.686,3.808,8.484,8.502,8.484h11.451C573.478,514.572,535.651,552.389,488.292,556.469z"></path>
            </g>
          </g>
        </g>
        <g>
          <g>
            <g>
              <path d="M529.066,445.966h-30.671c-4.089-5.897-10.881-9.813-18.588-9.813c-0.117,0-0.244,0.036-0.38,0.036l-27.948-39.346
						c-4.07-5.726-12.048-7.055-17.792-3.003c-5.726,4.089-7.101,12.084-3.003,17.828l27.967,39.363
						c-0.859,2.415-1.41,4.984-1.41,7.725c0,12.464,10.085,22.549,22.566,22.549c7.707,0,14.535-3.88,18.588-9.796h30.671
						c7.037,0,12.763-5.688,12.763-12.744C541.829,451.674,536.104,445.966,529.066,445.966z"></path>
            </g>
          </g>
        </g>
        <g>
          <g>
            <g>
              <path d="M127.245,195.593c23.137,0,41.86-18.741,41.86-41.851V62.93c0-23.119-18.723-41.851-41.86-41.851
						c-23.119,0-41.833,18.732-41.833,41.851v90.821C85.412,176.852,104.125,195.593,127.245,195.593z"></path>
            </g>
          </g>
        </g>
        <g>
          <g>
            <g>
              <path d="M383.578,195.593c23.138,0,41.86-18.741,41.86-41.851V62.93c0-23.119-18.723-41.851-41.86-41.851
						c-23.101,0-41.832,18.732-41.832,41.851v90.821C341.736,176.852,360.478,195.593,383.578,195.593z"></path>
            </g>
          </g>
        </g>
        <g>
          <g>
            <g>
              <path d="M183.957,311.793c0-11.948-9.66-21.626-21.636-21.626h-40.105c-11.948,0-21.653,9.678-21.653,21.626v40.088
						c0,11.966,9.705,21.672,21.653,21.672h40.105c11.966,0,21.636-9.706,21.636-21.672V311.793z"></path>
            </g>
          </g>
        </g>
        <g>
          <g>
            <g>
              <path d="M297.127,311.82c0-11.948-9.687-21.617-21.608-21.617h-40.124c-11.948,0-21.618,9.669-21.618,21.617v40.097
						c0,11.93,9.669,21.636,21.618,21.636h40.124c11.93,0,21.608-9.706,21.608-21.636V311.82z"></path>
            </g>
          </g>
        </g>
        <g>
          <g>
            <g>
              <path d="M348.548,290.167c-11.967,0-21.654,9.678-21.654,21.626v40.088c0,10.826,8.068,19.365,18.416,20.984
						c15.864-24.711,38.332-44.719,64.934-57.653v-3.419c0-11.948-9.669-21.626-21.636-21.626H348.548z"></path>
            </g>
          </g>
        </g>
        <g>
          <g>
            <g>
              <path d="M122.225,398.833c-11.948,0-21.654,9.669-21.654,21.617v40.105c0,11.948,9.706,21.617,21.654,21.617h40.124
						c11.948,0,21.608-9.669,21.608-21.617V420.45c0-11.948-9.66-21.617-21.608-21.617H122.225z"></path>
            </g>
          </g>
        </g>
        <g>
          <g>
            <g>
              <path d="M275.473,398.851h-40.087c-11.948,0-21.617,9.688-21.617,21.636v40.069c0,11.948,9.669,21.617,21.617,21.617h40.087
						c11.93,0,21.618-9.669,21.618-21.617v-40.069C297.091,408.538,287.403,398.851,275.473,398.851z"></path>
            </g>
          </g>
        </g>
        <g>
          <g>
            <g>
              <path d="M333.939,523.59H130.474c-35.022,0-63.523-28.5-63.523-63.486V247.592h376.958v55.608
						c11.551-2.659,23.518-4.215,35.899-4.215c10.619,0,20.984,1.095,31.033,3.094V102.204h-60.293v51.538
						c0,36.921-30.021,66.951-66.97,66.951c-36.93,0-66.95-30.029-66.95-66.951v-51.538H194.213v51.538
						c0,36.921-30.039,66.951-66.969,66.951c-36.913,0-66.951-30.029-66.951-66.951v-51.538H0v357.891
						c0,72.034,58.412,130.474,130.474,130.474h249.885c2.967,0,5.897-0.244,8.81-0.435
						C365.163,573.545,345.987,550.525,333.939,523.59z"></path>
            </g>
          </g>
        </g>
      </g>
    </g>
  </symbol>
  <symbol viewBox="0 0 448 512" id="facebook">
    <path d="M400 32H48A48 48 0 0 0 0 80v352a48 48 0 0 0 48 48h137.25V327.69h-63V256h63v-54.64c0-62.15 37-96.48 93.67-96.48 27.14 0 55.52 4.84 55.52 4.84v61h-31.27c-30.81 0-40.42 19.12-40.42 38.73V256h68.78l-11 71.69h-57.78V480H400a48 48 0 0 0 48-48V80a48 48 0 0 0-48-48z"></path>
  </symbol>
  <symbol viewBox="0 0 448 512" id="grid-2">
    <path fill="" d="M192 176C192 202.5 170.5 224 144 224H48C21.49 224 0 202.5 0 176V80C0 53.49 21.49 32 48 32H144C170.5 32 192 53.49 192 80V176zM192 432C192 458.5 170.5 480 144 480H48C21.49 480 0 458.5 0 432V336C0 309.5 21.49 288 48 288H144C170.5 288 192 309.5 192 336V432zM256 80C256 53.49 277.5 32 304 32H400C426.5 32 448 53.49 448 80V176C448 202.5 426.5 224 400 224H304C277.5 224 256 202.5 256 176V80zM448 432C448 458.5 426.5 480 400 480H304C277.5 480 256 458.5 256 432V336C256 309.5 277.5 288 304 288H400C426.5 288 448 309.5 448 336V432z"></path>
  </symbol>
  <symbol viewBox="0 0 448 512" id="instagram">
    <path d="M224,202.66A53.34,53.34,0,1,0,277.36,256,53.38,53.38,0,0,0,224,202.66Zm124.71-41a54,54,0,0,0-30.41-30.41c-21-8.29-71-6.43-94.3-6.43s-73.25-1.93-94.31,6.43a54,54,0,0,0-30.41,30.41c-8.28,21-6.43,71.05-6.43,94.33S91,329.26,99.32,350.33a54,54,0,0,0,30.41,30.41c21,8.29,71,6.43,94.31,6.43s73.24,1.93,94.3-6.43a54,54,0,0,0,30.41-30.41c8.35-21,6.43-71.05,6.43-94.33S357.1,182.74,348.75,161.67ZM224,338a82,82,0,1,1,82-82A81.9,81.9,0,0,1,224,338Zm85.38-148.3a19.14,19.14,0,1,1,19.13-19.14A19.1,19.1,0,0,1,309.42,189.74ZM400,32H48A48,48,0,0,0,0,80V432a48,48,0,0,0,48,48H400a48,48,0,0,0,48-48V80A48,48,0,0,0,400,32ZM382.88,322c-1.29,25.63-7.14,48.34-25.85,67s-41.4,24.63-67,25.85c-26.41,1.49-105.59,1.49-132,0-25.63-1.29-48.26-7.15-67-25.85s-24.63-41.42-25.85-67c-1.49-26.42-1.49-105.61,0-132,1.29-25.63,7.07-48.34,25.85-67s41.47-24.56,67-25.78c26.41-1.49,105.59-1.49,132,0,25.63,1.29,48.33,7.15,67,25.85s24.63,41.42,25.85,67.05C384.37,216.44,384.37,295.56,382.88,322Z"></path>
  </symbol>
  <symbol viewBox="0 0 512 512" id="list-solid">
    <path d="M88 48C101.3 48 112 58.75 112 72V120C112 133.3 101.3 144 88 144H40C26.75 144 16 133.3 16 120V72C16 58.75 26.75 48 40 48H88zM480 64C497.7 64 512 78.33 512 96C512 113.7 497.7 128 480 128H192C174.3 128 160 113.7 160 96C160 78.33 174.3 64 192 64H480zM480 224C497.7 224 512 238.3 512 256C512 273.7 497.7 288 480 288H192C174.3 288 160 273.7 160 256C160 238.3 174.3 224 192 224H480zM480 384C497.7 384 512 398.3 512 416C512 433.7 497.7 448 480 448H192C174.3 448 160 433.7 160 416C160 398.3 174.3 384 192 384H480zM16 232C16 218.7 26.75 208 40 208H88C101.3 208 112 218.7 112 232V280C112 293.3 101.3 304 88 304H40C26.75 304 16 293.3 16 280V232zM88 368C101.3 368 112 378.7 112 392V440C112 453.3 101.3 464 88 464H40C26.75 464 16 453.3 16 440V392C16 378.7 26.75 368 40 368H88z"></path>
  </symbol>
  <symbol viewBox="0 0 512 512" id="magnifying-glass">
    <path d="M500.3 443.7l-119.7-119.7c27.22-40.41 40.65-90.9 33.46-144.7C401.8 87.79 326.8 13.32 235.2 1.723C99.01-15.51-15.51 99.01 1.724 235.2c11.6 91.64 86.08 166.7 177.6 178.9c53.8 7.189 104.3-6.236 144.7-33.46l119.7 119.7c15.62 15.62 40.95 15.62 56.57 0C515.9 484.7 515.9 459.3 500.3 443.7zM79.1 208c0-70.58 57.42-128 128-128s128 57.42 128 128c0 70.58-57.42 128-128 128S79.1 278.6 79.1 208z"></path>
  </symbol>
  <symbol viewBox="0 0 448 512" id="odnoklassniki-square">
    <path d="M184.2 177.1c0-22.1 17.9-40 39.8-40s39.8 17.9 39.8 40c0 22-17.9 39.8-39.8 39.8s-39.8-17.9-39.8-39.8zM448 80v352c0 26.5-21.5 48-48 48H48c-26.5 0-48-21.5-48-48V80c0-26.5 21.5-48 48-48h352c26.5 0 48 21.5 48 48zm-305.1 97.1c0 44.6 36.4 80.9 81.1 80.9s81.1-36.2 81.1-80.9c0-44.8-36.4-81.1-81.1-81.1s-81.1 36.2-81.1 81.1zm174.5 90.7c-4.6-9.1-17.3-16.8-34.1-3.6 0 0-22.7 18-59.3 18s-59.3-18-59.3-18c-16.8-13.2-29.5-5.5-34.1 3.6-7.9 16.1 1.1 23.7 21.4 37 17.3 11.1 41.2 15.2 56.6 16.8l-12.9 12.9c-18.2 18-35.5 35.5-47.7 47.7-17.6 17.6 10.7 45.8 28.4 28.6l47.7-47.9c18.2 18.2 35.7 35.7 47.7 47.9 17.6 17.2 46-10.7 28.6-28.6l-47.7-47.7-13-12.9c15.5-1.6 39.1-5.9 56.2-16.8 20.4-13.3 29.3-21 21.5-37z"></path>
  </symbol>
  <symbol  viewBox="0 0 512 512" id="phone">
    <path d="M511.2 387l-23.25 100.8c-3.266 14.25-15.79 24.22-30.46 24.22C205.2 512 0 306.8 0 54.5c0-14.66 9.969-27.2 24.22-30.45l100.8-23.25C139.7-2.602 154.7 5.018 160.8 18.92l46.52 108.5c5.438 12.78 1.77 27.67-8.98 36.45L144.5 207.1c33.98 69.22 90.26 125.5 159.5 159.5l44.08-53.8c8.688-10.78 23.69-14.51 36.47-8.975l108.5 46.51C506.1 357.2 514.6 372.4 511.2 387z"></path>
  </symbol>
  <symbol  viewBox="0 0 512 512" id="right-to-bracket">
    <path d="M344.7 238.5l-144.1-136C193.7 95.97 183.4 94.17 174.6 97.95C165.8 101.8 160.1 110.4 160.1 120V192H32.02C14.33 192 0 206.3 0 224v64c0 17.68 14.33 32 32.02 32h128.1v72c0 9.578 5.707 18.25 14.51 22.05c8.803 3.781 19.03 1.984 26-4.594l144.1-136C354.3 264.4 354.3 247.6 344.7 238.5zM416 32h-64c-17.67 0-32 14.33-32 32s14.33 32 32 32h64c17.67 0 32 14.33 32 32v256c0 17.67-14.33 32-32 32h-64c-17.67 0-32 14.33-32 32s14.33 32 32 32h64c53.02 0 96-42.98 96-96V128C512 74.98 469 32 416 32z"></path>
  </symbol>
  <symbol viewBox="0 0 640 512" id="scale-balanced">
    <path d="M554.9 154.5c-17.62-35.25-68.12-35.38-85.87 0c-87 174.3-84.1 165.9-84.1 181.5c0 44.13 57.25 80 128 80s127.1-35.88 127.1-80C639.1 319.9 641.4 327.3 554.9 154.5zM439.1 320l71.96-144l72.17 144H439.1zM256 336c0-16.12 1.375-8.75-85.12-181.5c-17.62-35.25-68.12-35.38-85.87 0c-87 174.3-84.1 165.9-84.1 181.5c0 44.13 57.25 80 127.1 80S256 380.1 256 336zM127.9 176L200.1 320H55.96L127.9 176zM495.1 448h-143.1V153.3C375.5 143 393.1 121.8 398.4 96h113.6c17.67 0 31.1-14.33 31.1-32s-14.33-32-31.1-32h-128.4c-14.62-19.38-37.5-32-63.62-32S270.1 12.62 256.4 32H128C110.3 32 96 46.33 96 64S110.3 96 127.1 96h113.6c5.25 25.75 22.87 47 46.37 57.25V448H144c-26.51 0-48.01 21.49-48.01 48c0 8.836 7.165 16 16 16h416c8.836 0 16-7.164 16-16C544 469.5 522.5 448 495.1 448z"></path>
  </symbol>
  <symbol  viewBox="0 0 512 512" id="screwdriver-wrench">
    <path d="M331.8 224.1c28.29 0 54.88 10.99 74.86 30.97l19.59 19.59c40.01-17.74 71.25-53.3 81.62-96.65c5.725-23.92 5.34-47.08 .2148-68.4c-2.613-10.88-16.43-14.51-24.34-6.604l-68.9 68.9h-75.6V97.2l68.9-68.9c7.912-7.912 4.275-21.73-6.604-24.34c-21.32-5.125-44.48-5.51-68.4 .2148c-55.3 13.23-98.39 60.22-107.2 116.4C224.5 128.9 224.2 137 224.3 145l82.78 82.86C315.2 225.1 323.5 224.1 331.8 224.1zM384 278.6c-23.16-23.16-57.57-27.57-85.39-13.9L191.1 158L191.1 95.99l-127.1-95.99L0 63.1l96 127.1l62.04 .0077l106.7 106.6c-13.67 27.82-9.251 62.23 13.91 85.39l117 117.1c14.62 14.5 38.21 14.5 52.71-.0016l52.75-52.75c14.5-14.5 14.5-38.08-.0016-52.71L384 278.6zM227.9 307L168.7 247.9l-148.9 148.9c-26.37 26.37-26.37 69.08 0 95.45C32.96 505.4 50.21 512 67.5 512s34.54-6.592 47.72-19.78l119.1-119.1C225.5 352.3 222.6 329.4 227.9 307zM64 472c-13.25 0-24-10.75-24-24c0-13.26 10.75-24 24-24S88 434.7 88 448C88 461.3 77.25 472 64 472z"></path>
  </symbol>
  <symbol viewBox="0 0 448 512" id="trash-can">
    <path d="M135.2 17.69C140.6 6.848 151.7 0 163.8 0H284.2C296.3 0 307.4 6.848 312.8 17.69L320 32H416C433.7 32 448 46.33 448 64C448 81.67 433.7 96 416 96H32C14.33 96 0 81.67 0 64C0 46.33 14.33 32 32 32H128L135.2 17.69zM31.1 128H416V448C416 483.3 387.3 512 352 512H95.1C60.65 512 31.1 483.3 31.1 448V128zM111.1 208V432C111.1 440.8 119.2 448 127.1 448C136.8 448 143.1 440.8 143.1 432V208C143.1 199.2 136.8 192 127.1 192C119.2 192 111.1 199.2 111.1 208zM207.1 208V432C207.1 440.8 215.2 448 223.1 448C232.8 448 240 440.8 240 432V208C240 199.2 232.8 192 223.1 192C215.2 192 207.1 199.2 207.1 208zM304 208V432C304 440.8 311.2 448 320 448C328.8 448 336 440.8 336 432V208C336 199.2 328.8 192 320 192C311.2 192 304 199.2 304 208z"></path>
  </symbol>
  <symbol viewBox="0 0 640 512" id="truck">
    <path d="M368 0C394.5 0 416 21.49 416 48V96H466.7C483.7 96 499.1 102.7 512 114.7L589.3 192C601.3 204 608 220.3 608 237.3V352C625.7 352 640 366.3 640 384C640 401.7 625.7 416 608 416H576C576 469 533 512 480 512C426.1 512 384 469 384 416H256C256 469 213 512 160 512C106.1 512 64 469 64 416H48C21.49 416 0 394.5 0 368V48C0 21.49 21.49 0 48 0H368zM416 160V256H544V237.3L466.7 160H416zM160 368C133.5 368 112 389.5 112 416C112 442.5 133.5 464 160 464C186.5 464 208 442.5 208 416C208 389.5 186.5 368 160 368zM480 464C506.5 464 528 442.5 528 416C528 389.5 506.5 368 480 368C453.5 368 432 389.5 432 416C432 442.5 453.5 464 480 464z"></path>
  </symbol>
  <symbol viewBox="0 0 448 512" id="user">
    <path d="M224 256c70.7 0 128-57.31 128-128s-57.3-128-128-128C153.3 0 96 57.31 96 128S153.3 256 224 256zM274.7 304H173.3C77.61 304 0 381.6 0 477.3c0 19.14 15.52 34.67 34.66 34.67h378.7C432.5 512 448 496.5 448 477.3C448 381.6 370.4 304 274.7 304z"></path>
  </symbol>
  <symbol viewBox="0 0 448 512" id="vk-brands">
    <path d="M31.4907 63.4907C0 94.9813 0 145.671 0 247.04V264.96C0 366.329 0 417.019 31.4907 448.509C62.9813 480 113.671 480 215.04 480H232.96C334.329 480 385.019 480 416.509 448.509C448 417.019 448 366.329 448 264.96V247.04C448 145.671 448 94.9813 416.509 63.4907C385.019 32 334.329 32 232.96 32H215.04C113.671 32 62.9813 32 31.4907 63.4907ZM75.6 168.267H126.747C128.427 253.76 166.133 289.973 196 297.44V168.267H244.16V242C273.653 238.827 304.64 205.227 315.093 168.267H363.253C359.313 187.435 351.46 205.583 340.186 221.579C328.913 237.574 314.461 251.071 297.733 261.227C316.41 270.499 332.907 283.63 346.132 299.751C359.357 315.873 369.01 334.618 374.453 354.747H321.44C316.555 337.262 306.614 321.61 292.865 309.754C279.117 297.899 262.173 290.368 244.16 288.107V354.747H238.373C136.267 354.747 78.0267 284.747 75.6 168.267Z"></path>
  </symbol>
  <symbol id="garant" viewBox="0 0 1280.000000 1280.000000">
    <g transform="translate(0.000000,1280.000000) scale(0.100000,-0.100000)" stroke="none">
<path d="M5320 10655 c-161 -228 -292 -404 -300 -404 -8 0 -229 37 -490 83
-261 46 -478 80 -482 77 -3 -3 -55 -222 -114 -486 -59 -264 -108 -481 -109
-482 -1 -2 -219 -52 -484 -112 -265 -60 -484 -111 -487 -114 -3 -2 31 -213 75
-468 44 -255 81 -476 83 -491 3 -25 -26 -48 -402 -313 -223 -158 -404 -291
-403 -296 2 -4 41 -71 89 -149 59 -96 91 -140 104 -140 10 0 46 9 81 19 35 10
116 27 179 36 63 10 119 21 124 26 5 5 -2 26 -19 50 l-28 43 23 18 c12 10 172
124 356 254 184 130 334 239 334 242 0 4 -34 196 -74 427 -40 231 -71 423 -67
427 3 3 188 47 411 98 223 50 412 93 421 96 11 3 38 107 109 422 51 229 96
421 100 425 4 4 199 -25 434 -65 l427 -74 236 335 c130 185 244 346 253 358
l17 22 304 -192 c167 -106 334 -211 370 -234 l65 -41 335 212 c184 116 350
221 370 233 l35 22 250 -354 c165 -235 255 -354 267 -355 10 0 199 32 421 70
221 39 409 70 417 70 10 0 38 -108 109 -421 82 -363 98 -423 115 -430 11 -5
202 -49 424 -99 223 -50 406 -92 408 -94 2 -2 -30 -196 -71 -432 -40 -236 -73
-429 -72 -430 0 -1 159 -112 351 -248 193 -136 352 -251 353 -257 2 -5 -8 -28
-22 -49 -14 -22 -26 -43 -26 -48 0 -8 113 -26 329 -52 57 -8 97 -8 102 -3 21
21 158 266 154 273 -3 5 -185 135 -405 290 -251 177 -400 288 -400 298 0 10
36 230 81 490 46 266 78 477 73 482 -5 4 -223 56 -484 114 -261 59 -478 110
-481 114 -3 4 -54 223 -113 487 -60 264 -109 481 -110 482 -2 2 -52 -6 -112
-17 -404 -72 -867 -149 -874 -145 -4 2 -135 185 -290 405 -156 220 -287 400
-291 400 -4 0 -194 -118 -421 -261 -227 -144 -417 -262 -423 -262 -5 0 -196
118 -423 262 -227 143 -416 261 -420 261 -4 0 -136 -182 -292 -405z"/>
<path d="M5522 9970 c-128 -181 -236 -331 -240 -334 -4 -2 -187 27 -406 65
-220 38 -402 67 -404 64 -3 -2 -45 -181 -94 -397 -48 -216 -92 -395 -96 -399
-4 -4 -182 -46 -397 -94 -214 -48 -393 -89 -396 -91 -3 -1 26 -182 63 -400 38
-218 67 -402 64 -409 -2 -7 -153 -117 -335 -245 -284 -202 -328 -236 -320
-251 5 -10 15 -16 22 -14 39 14 799 108 1167 145 1236 121 2584 145 3800 65
363 -24 791 -62 1135 -101 240 -27 823 -102 842 -109 6 -2 17 3 24 11 10 12 9
18 -7 33 -10 10 -158 116 -329 236 -170 119 -313 220 -318 224 -4 4 24 189 63
411 38 222 68 405 67 406 -1 1 -166 39 -367 84 -201 45 -381 85 -400 90 l-36
10 -88 392 c-49 216 -92 397 -96 401 -5 6 -685 -103 -792 -127 -14 -3 -75 77
-254 330 -176 249 -241 334 -252 329 -9 -3 -166 -101 -349 -216 -183 -116
-339 -209 -346 -206 -6 3 -162 100 -346 216 -184 116 -337 211 -341 211 -3 0
-111 -148 -238 -330z"/>
<path d="M5610 7520 c-1364 -56 -2621 -207 -3905 -470 -137 -29 -251 -52 -252
-54 -1 -1 25 -163 57 -361 32 -198 58 -361 57 -362 -2 -1 -127 -32 -279 -68
-153 -36 -295 -71 -317 -78 l-39 -12 165 -185 c91 -102 230 -259 308 -350
l143 -166 -68 -204 c-101 -302 -231 -712 -227 -717 2 -2 98 20 213 47 602 146
1345 297 1412 286 17 -2 32 -2 32 2 0 4 -7 52 -15 107 -23 159 -26 153 55 94
39 -28 70 -56 70 -62 -1 -7 -38 -228 -84 -492 -50 -292 -79 -482 -73 -484 6
-2 223 -52 484 -111 260 -59 476 -110 479 -113 5 -5 60 -241 188 -810 18 -81
36 -150 40 -154 3 -4 222 31 486 76 264 46 486 81 493 78 7 -3 135 -178 284
-388 150 -211 278 -392 285 -402 13 -18 41 -2 436 248 l423 267 76 -48 c42
-26 232 -146 422 -266 273 -172 348 -215 357 -205 7 6 133 183 279 392 147
209 274 387 281 395 12 14 64 7 500 -68 267 -46 490 -80 494 -75 4 4 55 222
114 483 58 261 110 477 114 481 4 3 223 55 487 114 264 59 481 108 482 109 1
1 -36 221 -83 490 -46 269 -84 491 -84 495 0 5 117 79 140 89 4 1 1 -39 -6
-90 -21 -149 -32 -133 109 -158 413 -75 862 -170 1276 -271 134 -32 246 -57
249 -54 6 5 -57 206 -188 605 -55 167 -100 308 -100 313 0 9 230 276 450 522
74 82 141 158 148 167 12 15 -14 23 -275 86 -158 39 -303 73 -320 77 -23 5
-33 12 -33 26 0 10 25 168 55 350 30 182 55 337 55 344 0 26 -958 206 -1595
299 -779 114 -1401 173 -2355 227 -245 14 -1625 20 -1900 9z m1640 -1740 c832
-34 1587 -101 2340 -210 483 -70 494 -72 502 -79 4 -4 3 -46 -4 -95 l-11 -88
-41 7 c-257 42 -299 46 -325 29 -24 -16 -231 -162 -240 -170 -2 -2 29 -195 69
-429 45 -260 70 -429 64 -434 -5 -4 -196 -50 -424 -101 -228 -51 -416 -93
-417 -94 -1 -1 -45 -192 -97 -425 -53 -234 -97 -425 -99 -427 -1 -1 -195 31
-431 72 -237 40 -431 72 -432 71 -1 -1 -113 -159 -248 -352 -136 -192 -251
-351 -255 -353 -4 -1 -151 88 -327 199 -175 111 -340 215 -366 231 l-48 29
-364 -230 c-201 -127 -368 -231 -373 -231 -4 0 -120 160 -258 356 -209 296
-253 354 -270 350 -11 -3 -193 -34 -405 -71 -212 -36 -397 -68 -412 -71 -16
-3 -28 -2 -28 2 0 17 -181 810 -189 829 -8 18 -64 33 -430 115 -310 70 -421
98 -421 108 0 8 32 197 70 419 39 223 70 412 70 421 -1 10 -37 42 -83 74 -45
31 -106 73 -134 93 l-53 38 -147 -23 c-82 -12 -154 -27 -161 -33 -19 -15 -23
-6 -33 70 -16 126 -19 118 64 132 800 133 1794 232 2707 270 286 12 1356 12
1640 1z"/>
<path d="M5620 5589 c-460 -18 -989 -55 -1420 -100 -256 -26 -774 -89 -780
-95 -2 -3 0 -8 6 -12 135 -90 202 -144 198 -159 -23 -102 -133 -788 -127 -793
4 -4 185 -47 401 -96 l392 -88 9 -35 c6 -20 47 -200 92 -401 45 -201 82 -366
83 -367 1 -1 181 29 401 68 220 38 403 69 407 69 3 0 113 -151 243 -335 215
-305 238 -334 256 -324 11 5 168 104 350 219 l329 209 348 -220 c332 -210 348
-218 363 -200 8 10 116 161 238 335 123 174 227 316 233 316 14 0 769 -130
789 -136 13 -3 30 61 105 392 49 217 91 400 94 404 3 5 182 49 398 98 216 49
395 92 398 95 3 3 -24 180 -61 394 -36 213 -67 394 -68 402 -1 8 41 45 93 81
52 37 96 72 97 77 2 5 -92 21 -209 36 -662 85 -1304 137 -2028 167 -279 11
-1338 11 -1630 -1z"/>
</g>
  </symbol>
</svg>
